<svg xmlns="http://www.w3.org/2000/svg" width="1280" height="360" viewBox="0 0 1280 360" role="img" aria-labelledby="title desc">
  <title id="title">orgline logo</title>
  <desc id="desc">Matrix-themed orgline logo with dotted outline icon and wordmark.</desc>

  <rect x="16" y="16" width="1248" height="328" rx="28" fill="#04170d" stroke="#7effac" stroke-width="8"/>

  <g transform="translate(70 94)">
    <rect x="0" y="0" width="270" height="172" rx="14" fill="#0b2315" stroke="#2a8a4f" stroke-width="2"/>

    <line x1="46" y1="36" x2="46" y2="136" stroke="#1ea753" stroke-width="4" stroke-linecap="round" stroke-dasharray="1 11"/>
    <line x1="46" y1="36" x2="92" y2="36" stroke="#52df81" stroke-width="4" stroke-linecap="round" stroke-dasharray="1 11"/>
    <line x1="46" y1="86" x2="92" y2="86" stroke="#52df81" stroke-width="4" stroke-linecap="round" stroke-dasharray="1 11"/>
    <line x1="46" y1="136" x2="92" y2="136" stroke="#52df81" stroke-width="4" stroke-linecap="round" stroke-dasharray="1 11"/>

    <circle cx="46" cy="36" r="7" fill="#9af3ba"/>
    <circle cx="46" cy="86" r="7" fill="#9af3ba"/>
    <circle cx="46" cy="136" r="7" fill="#9af3ba"/>

    <rect x="92" y="20" width="146" height="32" rx="9" fill="#0f2b1b" stroke="#2bd166" stroke-width="2"/>
    <rect x="92" y="70" width="130" height="32" rx="9" fill="#0f2b1b" stroke="#2bd166" stroke-width="2"/>
    <rect x="92" y="120" width="108" height="32" rx="9" fill="#0f2b1b" stroke="#2bd166" stroke-width="2"/>
  </g>

  <g transform="translate(368 64)">
    <rect x="0" y="0" width="86" height="86" rx="18" fill="#0b2315" stroke="#2a8a4f" stroke-width="2"/>
    <line x1="20" y1="21" x2="20" y2="65" stroke="#1ea753" stroke-width="3.5" stroke-linecap="round" stroke-dasharray="1 8"/>
    <line x1="20" y1="21" x2="34" y2="21" stroke="#52df81" stroke-width="3.5" stroke-linecap="round" stroke-dasharray="1 8"/>
    <line x1="20" y1="43" x2="34" y2="43" stroke="#52df81" stroke-width="3.5" stroke-linecap="round" stroke-dasharray="1 8"/>
    <line x1="20" y1="65" x2="34" y2="65" stroke="#52df81" stroke-width="3.5" stroke-linecap="round" stroke-dasharray="1 8"/>
    <circle cx="20" cy="21" r="4.2" fill="#9af3ba"/>
    <circle cx="20" cy="43" r="4.2" fill="#9af3ba"/>
    <circle cx="20" cy="65" r="4.2" fill="#9af3ba"/>
    <rect x="34" y="14" width="36" height="14" rx="5" fill="#0f2b1b" stroke="#2bd166" stroke-width="1.5"/>
    <rect x="34" y="36" width="31" height="14" rx="5" fill="#0f2b1b" stroke="#2bd166" stroke-width="1.5"/>
    <rect x="34" y="58" width="25" height="14" rx="5" fill="#0f2b1b" stroke="#2bd166" stroke-width="1.5"/>
  </g>

  <text
    x="476"
    y="214"
    fill="#9af3ba"
    font-family="ui-monospace, SFMono-Regular, Menlo, Monaco, Consolas, Liberation Mono, monospace"
    font-size="122"
    font-weight="700"
    letter-spacing="1.2"
  >orgline</text>
</svg>
